<svg width="25" height="18" viewBox="0 0 25 18" fill="none" xmlns="http://www.w3.org/2000/svg">
<path d="M21.5886 0.333252H2.80068C2.08885 0.333252 1.40616 0.614203 0.90282 1.1143C0.399475 1.6144 0.116699 2.29267 0.116699 2.99992L0.116699 8.99992H24.2725V2.99992C24.2725 2.29267 23.9898 1.6144 23.4864 1.1143C22.9831 0.614203 22.3004 0.333252 21.5886 0.333252Z" fill="#DC1F26"/>
<path d="M24.2725 14.9999C24.2725 15.7071 23.9898 16.3854 23.4864 16.8855C22.9831 17.3856 22.3004 17.6665 21.5886 17.6665H2.80068C2.08885 17.6665 1.40616 17.3856 0.90282 16.8855C0.399475 16.3854 0.116699 15.7071 0.116699 14.9999V8.99988H24.2725V14.9999Z" fill="white"/>
</svg>
