<svg width="43" height="42" viewBox="0 0 43 42" fill="none" xmlns="http://www.w3.org/2000/svg">
<rect x="8.48303" y="7.57446" width="26.766" height="22.7511" rx="3" fill="#83D0FF"/>
<path d="M28.2093 31.1153H15.5356C14.4784 31.1153 13.7155 31.0751 13.0598 30.9814C8.41586 30.4728 7.49243 27.6892 7.49243 23.0721V14.614C7.49243 9.99686 8.40249 7.21315 13.0865 6.7046C13.7289 6.61092 14.4918 6.5708 15.5356 6.5708H28.2093C29.2532 6.5708 30.016 6.61092 30.6852 6.7046C35.3425 7.21315 36.2525 9.99686 36.2525 14.614V23.0721C36.2525 27.6892 35.3425 30.4728 30.6584 30.9814C30.0294 31.0751 29.2666 31.1153 28.2093 31.1153ZM15.5222 8.57825C14.572 8.57825 13.8895 8.61844 13.3274 8.69873C10.4367 9.01993 9.48651 9.91658 9.48651 14.6274V23.0855C9.48651 27.7829 10.4367 28.6929 13.3007 29.0007C13.8895 29.081 14.5721 29.1211 15.5356 29.1211H28.2093C29.1729 29.1211 29.8421 29.081 30.4041 29.0007C33.2949 28.6795 34.2451 27.7829 34.2451 23.0721V14.614C34.2451 9.91656 33.2949 9.00654 30.4309 8.69873C29.8287 8.61844 29.1595 8.57825 28.1959 8.57825H15.5222Z" fill="#83D0FF"/>
<path d="M28.9057 17.0364H23.9808C23.4321 17.0364 22.9771 16.5814 22.9771 16.0327C22.9771 15.484 23.4321 15.0289 23.9808 15.0289H28.9057C29.4544 15.0289 29.9094 15.484 29.9094 16.0327C29.9094 16.5814 29.4678 17.0364 28.9057 17.0364Z" fill="#009EFF"/>
<path d="M19.1895 17.3709C18.4534 17.3709 17.8512 16.7687 17.8512 16.0326C17.8512 15.2966 18.44 14.6943 19.1895 14.6943C19.9256 14.6943 20.5278 15.2966 20.5278 16.0326C20.5278 16.7687 19.9389 17.3709 19.1895 17.3709Z" fill="#009EFF"/>
<path d="M14.974 17.3709C14.238 17.3709 13.6357 16.7687 13.6357 16.0326C13.6357 15.2966 14.2246 14.6943 14.974 14.6943H14.9874C15.7235 14.6943 16.3257 15.2966 16.3257 16.0326C16.3257 16.7687 15.7101 17.3709 14.974 17.3709Z" fill="#009EFF"/>
<path d="M28.9057 24.785H14.8402C14.2915 24.785 13.8231 24.33 13.8231 23.7813C13.8231 23.2326 14.2647 22.7776 14.8134 22.7776H28.9057C29.4544 22.7776 29.9095 23.2326 29.9095 23.7813C29.9095 24.33 29.4678 24.785 28.9057 24.785Z" fill="#009EFF"/>
<path d="M28.5576 35.3442H15.1746C14.6259 35.3442 14.1709 34.8892 14.1709 34.3405C14.1709 33.7918 14.6259 33.3368 15.1746 33.3368H28.5576C29.1063 33.3368 29.5613 33.7918 29.5613 34.3405C29.5613 34.8892 29.1063 35.3442 28.5576 35.3442Z" fill="#83D0FF"/>
</svg>
