<svg width="33" height="33" viewBox="0 0 33 33" fill="none" xmlns="http://www.w3.org/2000/svg">
<rect x="0.5" y="0.5" width="32" height="32" rx="9.5" fill="white" stroke="#BBBBBB"/>
<path d="M21.9338 7.76196V10.9861H25.1577L21.9338 7.76196Z" fill="#BBBBBB"/>
<path d="M21.4036 12.0466C21.1108 12.0466 20.8734 11.8092 20.8734 11.5164V7.45166H13.2741C12.3971 7.45166 11.6836 8.16518 11.6836 9.04221V14.9693C11.8583 14.9534 12.035 14.9449 12.2138 14.9449C14.0209 14.9449 15.6386 15.7711 16.7092 17.0656H22.464C22.7568 17.0656 22.9942 17.303 22.9942 17.5958C22.9942 17.8886 22.7568 18.126 22.464 18.126H17.4077C17.7391 18.7727 17.9528 19.4891 18.0214 20.2467H22.464C22.7568 20.2467 22.9942 20.4841 22.9942 20.7769C22.9942 21.0697 22.7568 21.3071 22.464 21.3071H18.0214C17.8629 23.0581 16.9273 24.5881 15.563 25.5486H23.8778C24.7548 25.5486 25.4683 24.835 25.4683 23.958V12.0466H21.4036ZM22.464 14.9449H14.688C14.3952 14.9449 14.1578 14.7075 14.1578 14.4147C14.1578 14.1219 14.3952 13.8845 14.688 13.8845H22.464C22.7568 13.8845 22.9942 14.1219 22.9942 14.4147C22.9942 14.7075 22.7568 14.9449 22.464 14.9449Z" fill="#BBBBBB"/>
<path d="M12.214 16.0051C9.58294 16.0051 7.44238 18.1457 7.44238 20.7768C7.44238 23.4079 9.58294 25.5484 12.214 25.5484C14.8451 25.5484 16.9857 23.4079 16.9857 20.7768C16.9857 18.1457 14.8451 16.0051 12.214 16.0051ZM13.6278 21.307H12.214C11.9212 21.307 11.6838 21.0696 11.6838 20.7768V18.656C11.6838 18.3632 11.9212 18.1259 12.214 18.1259C12.5068 18.1259 12.7442 18.3632 12.7442 18.656V20.2466H13.6278C13.9206 20.2466 14.158 20.484 14.158 20.7768C14.158 21.0696 13.9206 21.307 13.6278 21.307Z" fill="#BBBBBB"/>
</svg>
