<svg width="15" height="15" viewBox="0 0 15 15" fill="none" xmlns="http://www.w3.org/2000/svg">
<path d="M10.5125 1.25H4.48745C3.1562 1.25 2.07495 2.3375 2.07495 3.6625V12.4688C2.07495 13.5938 2.8812 14.0688 3.8687 13.525L6.9187 11.8313C7.2437 11.65 7.7687 11.65 8.08745 11.8313L11.1375 13.525C12.125 14.075 12.9312 13.6 12.9312 12.4688V3.6625C12.925 2.3375 11.8437 1.25 10.5125 1.25ZM9.3812 6.09375C8.77495 6.3125 8.13745 6.425 7.49995 6.425C6.86245 6.425 6.22495 6.3125 5.6187 6.09375C5.37495 6.00625 5.24995 5.7375 5.33745 5.49375C5.4312 5.25 5.69995 5.125 5.9437 5.2125C6.94995 5.575 8.0562 5.575 9.06245 5.2125C9.3062 5.125 9.57495 5.25 9.66245 5.49375C9.74995 5.7375 9.62495 6.00625 9.3812 6.09375Z" fill="#232226"/>
</svg>
