<svg width="28" height="28" viewBox="0 0 28 28" fill="none" xmlns="http://www.w3.org/2000/svg">
<rect x="0.5" y="0.5" width="27" height="27" rx="7.5" fill="white"/>
<path d="M9.14999 22.9583C9.06666 22.9583 8.97499 22.95 8.89999 22.9417L7.09166 22.6917C6.22499 22.575 5.44166 21.8 5.30833 20.9167L5.05833 19.0917C4.97499 18.5083 5.22499 17.75 5.64166 17.325L9.29999 13.6667C8.70833 11.3 9.39166 8.80001 11.1333 7.07501C13.8333 4.38334 18.225 4.37501 20.9333 7.07501C22.2417 8.38334 22.9583 10.125 22.9583 11.975C22.9583 13.825 22.2417 15.5667 20.9333 16.875C19.1833 18.6083 16.6917 19.2917 14.3417 18.6917L10.675 22.35C10.325 22.7167 9.69999 22.9583 9.14999 22.9583ZM16.025 6.30001C14.5667 6.30001 13.1167 6.85001 12.0083 7.95834C10.5083 9.45001 9.96666 11.6333 10.5917 13.6667C10.6583 13.8917 10.6 14.125 10.4333 14.2917L6.51666 18.2083C6.37499 18.35 6.25833 18.7167 6.28333 18.9083L6.53333 20.7333C6.58333 21.05 6.92499 21.4083 7.24166 21.45L9.05833 21.7C9.25833 21.7333 9.62499 21.6167 9.76666 21.475L13.7 17.55C13.8667 17.3833 14.1083 17.3333 14.325 17.4C16.3333 18.0333 18.525 17.4917 20.025 15.9917C21.0917 14.925 21.6833 13.4917 21.6833 11.975C21.6833 10.45 21.0917 9.02501 20.025 7.95834C18.9417 6.85834 17.4833 6.30001 16.025 6.30001Z" fill="#232226"/>
<path d="M11.6584 21.1167C11.5 21.1167 11.3417 21.0583 11.2167 20.9333L9.30002 19.0167C9.05836 18.775 9.05836 18.375 9.30002 18.1333C9.54169 17.8917 9.94169 17.8917 10.1834 18.1333L12.1 20.05C12.3417 20.2917 12.3417 20.6917 12.1 20.9333C11.975 21.0583 11.8167 21.1167 11.6584 21.1167Z" fill="#232226"/>
<path d="M16.0834 13.7917C15.05 13.7917 14.2084 12.95 14.2084 11.9167C14.2084 10.8833 15.05 10.0417 16.0834 10.0417C17.1167 10.0417 17.9584 10.8833 17.9584 11.9167C17.9584 12.95 17.1167 13.7917 16.0834 13.7917ZM16.0834 11.2917C15.7417 11.2917 15.4584 11.575 15.4584 11.9167C15.4584 12.2583 15.7417 12.5417 16.0834 12.5417C16.425 12.5417 16.7084 12.2583 16.7084 11.9167C16.7084 11.575 16.425 11.2917 16.0834 11.2917Z" fill="#232226"/>
<rect x="0.5" y="0.5" width="27" height="27" rx="7.5" stroke="#BBBBBB"/>
</svg>
