<svg width="13" height="11" viewBox="0 0 13 11" fill="none" xmlns="http://www.w3.org/2000/svg">
<g clip-path="url(#clip0_54_328)">
<path d="M9.6938 0H2.9563C2.31836 0.000727768 1.70676 0.242404 1.25567 0.672017C0.804573 1.10163 0.550813 1.6841 0.550049 2.29167L0.550049 8.70833C0.550813 9.3159 0.804573 9.89837 1.25567 10.328C1.70676 10.7576 2.31836 10.9993 2.9563 11H9.6938C10.3317 10.9993 10.9433 10.7576 11.3944 10.328C11.8455 9.89837 12.0993 9.3159 12.1 8.70833V2.29167C12.0993 1.6841 11.8455 1.10163 11.3944 0.672017C10.9433 0.242404 10.3317 0.000727768 9.6938 0V0ZM11.1375 8.70833C11.1375 9.07301 10.9854 9.42274 10.7147 9.68061C10.4439 9.93847 10.0767 10.0833 9.6938 10.0833H2.9563C2.57339 10.0833 2.20617 9.93847 1.93541 9.68061C1.66466 9.42274 1.51255 9.07301 1.51255 8.70833V2.29167C1.51255 1.92699 1.66466 1.57726 1.93541 1.31939C2.20617 1.06153 2.57339 0.916667 2.9563 0.916667H9.6938C10.0767 0.916667 10.4439 1.06153 10.7147 1.31939C10.9854 1.57726 11.1375 1.92699 11.1375 2.29167V8.70833Z" fill="#232226"/>
<path d="M5.04164 7.2962L3.15562 5.49999C3.06537 5.41407 2.94299 5.3658 2.81538 5.3658C2.68777 5.3658 2.56538 5.41407 2.47513 5.49999C2.38491 5.58594 2.33423 5.7025 2.33423 5.82403C2.33423 5.94557 2.38491 6.06212 2.47513 6.14807L4.36115 7.94428C4.45053 8.02944 4.55666 8.09699 4.67346 8.14308C4.79026 8.18917 4.91545 8.2129 5.04188 8.2129C5.16831 8.2129 5.2935 8.18917 5.4103 8.14308C5.5271 8.09699 5.63323 8.02944 5.72261 7.94428L10.1751 3.70379C10.2654 3.61783 10.316 3.50128 10.316 3.37974C10.316 3.25821 10.2654 3.14165 10.1751 3.0557C10.0849 2.96978 9.9625 2.92151 9.83489 2.92151C9.70728 2.92151 9.58489 2.96978 9.49465 3.0557L5.04164 7.2962Z" fill="#232226"/>
</g>
<defs>
<clipPath id="clip0_54_328">
<rect width="11.55" height="11" fill="white" transform="translate(0.550049)"/>
</clipPath>
</defs>
</svg>
