<svg width="18" height="18" viewBox="0 0 18 18" fill="none" xmlns="http://www.w3.org/2000/svg">
<g clip-path="url(#clip0_6_200)">
<path d="M14.25 0H3.75C2.7558 0.00119089 1.80267 0.396661 1.09966 1.09966C0.396661 1.80267 0.00119089 2.7558 0 3.75L0 14.25C0.00119089 15.2442 0.396661 16.1973 1.09966 16.9003C1.80267 17.6033 2.7558 17.9988 3.75 18H14.25C15.2442 17.9988 16.1973 17.6033 16.9003 16.9003C17.6033 16.1973 17.9988 15.2442 18 14.25V3.75C17.9988 2.7558 17.6033 1.80267 16.9003 1.09966C16.1973 0.396661 15.2442 0.00119089 14.25 0V0ZM16.5 14.25C16.5 14.8467 16.2629 15.419 15.841 15.841C15.419 16.2629 14.8467 16.5 14.25 16.5H3.75C3.15326 16.5 2.58097 16.2629 2.15901 15.841C1.73705 15.419 1.5 14.8467 1.5 14.25V3.75C1.5 3.15326 1.73705 2.58097 2.15901 2.15901C2.58097 1.73705 3.15326 1.5 3.75 1.5H14.25C14.8467 1.5 15.419 1.73705 15.841 2.15901C16.2629 2.58097 16.5 3.15326 16.5 3.75V14.25Z" fill="#009EFF"/>
<path d="M6.99975 11.9392L4.0605 8.99999C3.91985 8.85939 3.72912 8.7804 3.53025 8.7804C3.33138 8.7804 3.14065 8.85939 3 8.99999C2.8594 9.14064 2.78041 9.33137 2.78041 9.53024C2.78041 9.72911 2.8594 9.91984 3 10.0605L5.93925 12.9997C6.07855 13.1391 6.24393 13.2496 6.42596 13.325C6.60799 13.4005 6.80309 13.4393 7.00013 13.4393C7.19716 13.4393 7.39226 13.4005 7.57429 13.325C7.75632 13.2496 7.92171 13.1391 8.061 12.9997L15 6.06074C15.1406 5.9201 15.2196 5.72937 15.2196 5.53049C15.2196 5.33162 15.1406 5.14089 15 5.00024C14.8594 4.85964 14.6686 4.78065 14.4698 4.78065C14.2709 4.78065 14.0801 4.85964 13.9395 5.00024L6.99975 11.9392Z" fill="#009EFF"/>
</g>
<defs>
<clipPath id="clip0_6_200">
<rect width="18" height="18" fill="white"/>
</clipPath>
</defs>
</svg>
