<svg width="16" height="16" viewBox="0 0 16 16" fill="none" xmlns="http://www.w3.org/2000/svg">
<path d="M9.55664 10.9433C9.54997 10.9433 9.54664 10.9433 9.5433 10.9433H5.84664C4.86664 10.8733 4.42664 10.1167 4.42664 9.44666C4.42664 8.84666 4.77664 8.17999 5.53664 7.99666C5.32664 7.15666 5.50997 6.36999 6.0633 5.79999C6.68997 5.15333 7.68664 4.90333 8.53664 5.17999C8.66664 5.22333 8.73997 5.36333 8.69664 5.49333C8.6533 5.62333 8.5133 5.69666 8.3833 5.65333C7.70664 5.43666 6.91664 5.63333 6.41997 6.14999C5.93664 6.64999 5.8233 7.34666 6.09997 8.11666C6.12664 8.19333 6.11664 8.27999 6.06997 8.34333C6.0233 8.40666 5.94664 8.44999 5.86664 8.44999C5.21997 8.49666 4.92997 8.98333 4.92997 9.44666C4.92997 9.90999 5.21997 10.3967 5.86664 10.4467H9.54664C9.92664 10.45 10.3066 10.3067 10.59 10.0467C10.9733 9.70999 11.14 9.21999 11.0566 8.69999C11.0333 8.56333 11.1266 8.43666 11.2633 8.41333C11.4 8.38999 11.5266 8.48333 11.55 8.61999C11.6633 9.30666 11.4266 9.97999 10.9266 10.42C10.5533 10.7533 10.0666 10.9433 9.55664 10.9433Z" fill="#5995F0"/>
<path d="M6.41995 8.58666C6.38328 8.58666 6.34328 8.57666 6.30995 8.55999C6.16995 8.48999 6.01661 8.45333 5.85995 8.44999C5.72328 8.44666 5.61328 8.33333 5.61328 8.19666C5.61661 8.05999 5.74661 7.94666 5.86661 7.94999C6.09661 7.95333 6.32661 8.00999 6.52995 8.11333C6.65328 8.17333 6.70328 8.32666 6.64328 8.44999C6.59995 8.53666 6.51328 8.58666 6.41995 8.58666Z" fill="#5995F0"/>
<path d="M10.1567 8.25001C9.37666 8.25001 8.73999 7.61335 8.73999 6.83335C8.73999 6.46668 8.87999 6.12001 9.13332 5.86001C9.13999 5.85001 9.14666 5.84335 9.15332 5.83668C9.41999 5.56668 9.77332 5.42001 10.1533 5.42001C10.9333 5.42001 11.57 6.05668 11.57 6.83668C11.57 7.27001 11.3767 7.67335 11.0367 7.94335C10.7933 8.14001 10.48 8.25001 10.1567 8.25001ZM9.53332 6.16668C9.52666 6.17668 9.51999 6.18335 9.50999 6.19335C9.33666 6.36335 9.23999 6.59335 9.23999 6.83668C9.23999 7.34335 9.64999 7.75335 10.1567 7.75335C10.3633 7.75335 10.5667 7.68335 10.7267 7.55335C10.95 7.37668 11.0733 7.11668 11.0733 6.83668C11.0733 6.33001 10.6633 5.92001 10.1567 5.92001C9.91999 5.91668 9.69999 6.00668 9.53332 6.16668Z" fill="#5995F0"/>
<circle cx="10.25" cy="6.75" r="1.25" fill="#5995F0"/>
<rect x="0.15" y="0.15" width="15.7" height="15.7" rx="7.85" stroke="#BBBBBB" stroke-opacity="0.733333" stroke-width="0.3"/>
</svg>
