<svg width="18" height="18" viewBox="0 0 18 18" fill="none" xmlns="http://www.w3.org/2000/svg">
<path d="M9.60209 16.5H4.94896C3.87427 16.5 3 15.5538 3 14.3906V7.24512C3 6.08197 3.87427 5.13574 4.94896 5.13574H9.60209C10.6768 5.13574 11.551 6.08197 11.551 7.24512V14.3906C11.551 15.5538 10.6768 16.5 9.60209 16.5ZM4.94896 6.19043C4.41166 6.19043 3.97448 6.6636 3.97448 7.24512V14.3906C3.97448 14.9721 4.41166 15.4453 4.94896 15.4453H9.60209C10.1394 15.4453 10.5766 14.9721 10.5766 14.3906V7.24512C10.5766 6.6636 10.1394 6.19043 9.60209 6.19043H4.94896ZM13.5 13.0723V5.10938C13.5 3.94623 12.6257 3 11.551 3H6.14269C5.87357 3 5.65545 3.23607 5.65545 3.52734C5.65545 3.81862 5.87357 4.05469 6.14269 4.05469H11.551C12.0883 4.05469 12.5255 4.52785 12.5255 5.10938V13.0723C12.5255 13.3635 12.7436 13.5996 13.0128 13.5996C13.2819 13.5996 13.5 13.3635 13.5 13.0723Z" fill="#BBBBBB"/>
</svg>
