<svg width="28" height="28" viewBox="0 0 28 28" fill="none" xmlns="http://www.w3.org/2000/svg">
<rect x="0.5" y="0.5" width="27" height="27" rx="7.5" fill="white"/>
<path d="M14 14.625C11.3584 14.625 9.20837 12.475 9.20837 9.83334C9.20837 7.19167 11.3584 5.04167 14 5.04167C16.6417 5.04167 18.7917 7.19167 18.7917 9.83334C18.7917 12.475 16.6417 14.625 14 14.625ZM14 6.29167C12.05 6.29167 10.4584 7.88334 10.4584 9.83334C10.4584 11.7833 12.05 13.375 14 13.375C15.95 13.375 17.5417 11.7833 17.5417 9.83334C17.5417 7.88334 15.95 6.29167 14 6.29167Z" fill="#232226"/>
<path d="M17.1834 22.9583C16.8668 22.9583 16.5668 22.8416 16.3501 22.625C16.0918 22.3666 15.9751 21.9917 16.0334 21.6L16.1918 20.475C16.2334 20.1834 16.4084 19.8417 16.6168 19.625L19.5667 16.675C20.7501 15.4917 21.7918 16.1667 22.3001 16.675C22.7334 17.1084 22.9584 17.575 22.9584 18.0416C22.9584 18.5166 22.7418 18.9583 22.3001 19.4L19.3501 22.35C19.1417 22.5584 18.7918 22.7334 18.5001 22.775L17.3751 22.9333C17.3084 22.95 17.2501 22.9583 17.1834 22.9583ZM20.9251 17.2667C20.7751 17.2667 20.6417 17.3667 20.4501 17.5584L17.5001 20.5083C17.4751 20.5333 17.4334 20.6167 17.4334 20.65L17.2834 21.6917L18.3251 21.5417C18.3584 21.5333 18.4417 21.4917 18.4667 21.4667L21.4168 18.5167C21.5501 18.3833 21.7084 18.1916 21.7084 18.0416C21.7084 17.9166 21.6084 17.7417 21.4168 17.5584C21.2168 17.3584 21.0667 17.2667 20.9251 17.2667Z" fill="#232226"/>
<path d="M21.4335 20.0166C21.3751 20.0166 21.3168 20.0083 21.2668 19.9917C20.1668 19.6833 19.2918 18.8083 18.9835 17.7083C18.8918 17.375 19.0835 17.0334 19.4168 16.9417C19.7501 16.85 20.0918 17.0417 20.1835 17.375C20.3751 18.0583 20.9168 18.6 21.6001 18.7917C21.9335 18.8833 22.1251 19.2333 22.0335 19.5583C21.9585 19.8333 21.7085 20.0166 21.4335 20.0166Z" fill="#232226"/>
<path d="M6.8418 22.9583C6.50013 22.9583 6.2168 22.675 6.2168 22.3333C6.2168 18.775 9.70849 15.875 14.0002 15.875C14.9085 15.875 15.8085 16.0084 16.6501 16.2584C16.9835 16.3584 17.1668 16.7083 17.0668 17.0333C16.9668 17.3667 16.6168 17.55 16.2918 17.45C15.5585 17.2333 14.7918 17.1167 14.0002 17.1167C10.4002 17.1167 7.4668 19.45 7.4668 22.325C7.4668 22.675 7.18346 22.9583 6.8418 22.9583Z" fill="#232226"/>
<rect x="0.5" y="0.5" width="27" height="27" rx="7.5" stroke="#BBBBBB"/>
</svg>
