<svg width="15" height="14" viewBox="0 0 15 14" fill="none" xmlns="http://www.w3.org/2000/svg">
<path d="M13.2095 0.136597H1.68253C1.3899 0.136827 1.10363 0.221897 0.858465 0.381482C0.613296 0.541067 0.419769 0.768305 0.301372 1.03562C0.182974 1.30293 0.144797 1.59883 0.191474 1.88739C0.23815 2.17596 0.367673 2.44479 0.564324 2.66125L5.55989 8.14928V13.3251C5.55993 13.4263 5.58852 13.5254 5.64237 13.6111C5.69623 13.6968 5.77316 13.7656 5.86436 13.8096C5.93725 13.8455 6.01752 13.8639 6.09878 13.8634C6.22126 13.8633 6.34006 13.8215 6.43559 13.745L7.44602 12.9375L9.13007 11.5917C9.19309 11.5413 9.24397 11.4774 9.27894 11.4048C9.31392 11.3321 9.33211 11.2525 9.33216 11.1719V8.14928L14.3277 2.66125C14.5244 2.44479 14.6539 2.17596 14.7006 1.88739C14.7473 1.59883 14.7091 1.30293 14.5907 1.03562C14.4723 0.768305 14.2788 0.541067 14.0336 0.381482C13.7884 0.221897 13.5021 0.136827 13.2095 0.136597Z" fill="#232226"/>
</svg>
