<svg width="16" height="16" viewBox="0 0 16 16" fill="none" xmlns="http://www.w3.org/2000/svg">
<path d="M7.99997 11.5867C7.63663 11.5867 7.27663 11.48 6.9933 11.27L5.55997 10.2C5.17997 9.91666 4.8833 9.32333 4.8833 8.85333V6.37333C4.8833 5.86 5.25997 5.31333 5.7433 5.13333L7.40663 4.51C7.73663 4.38666 8.25663 4.38666 8.58663 4.51L10.25 5.13333C10.7333 5.31333 11.11 5.86 11.11 6.37333V8.85C11.11 9.32333 10.8133 9.91333 10.4333 10.1967L8.99997 11.2667C8.7233 11.48 8.3633 11.5867 7.99997 11.5867ZM7.5833 4.98L5.91997 5.60333C5.63663 5.71 5.38663 6.07 5.38663 6.37666V8.85333C5.38663 9.17 5.60997 9.61333 5.85997 9.8L7.2933 10.87C7.67663 11.1567 8.3233 11.1567 8.70997 10.87L10.1433 9.8C10.3966 9.61 10.6166 9.17 10.6166 8.85333V6.37333C10.6166 6.07 10.3666 5.71 10.0833 5.6L8.41997 4.97666C8.1933 4.89666 7.80663 4.89666 7.5833 4.98Z" fill="#D44539"/>
<path d="M8.71661 8.73C8.65328 8.73 8.58995 8.70666 8.53995 8.65666L7.12328 7.24C7.02661 7.14333 7.02661 6.98333 7.12328 6.88666C7.21995 6.79 7.37995 6.79 7.47661 6.88666L8.89328 8.30333C8.98995 8.4 8.98995 8.56 8.89328 8.65666C8.84328 8.70333 8.77995 8.73 8.71661 8.73Z" fill="#D44539"/>
<path d="M7.28335 8.74333C7.22001 8.74333 7.15668 8.72 7.10668 8.67C7.01001 8.57333 7.01001 8.41333 7.10668 8.31667L8.52335 6.9C8.62001 6.80333 8.78001 6.80333 8.87668 6.9C8.97335 6.99667 8.97335 7.15667 8.87668 7.25333L7.46001 8.67C7.41335 8.72 7.34668 8.74333 7.28335 8.74333Z" fill="#D44539"/>
<rect x="0.15" y="0.15" width="15.7" height="15.7" rx="7.85" stroke="#BBBBBB" stroke-opacity="0.733333" stroke-width="0.3"/>
</svg>
