<svg width="20" height="20" viewBox="0 0 20 20" fill="none" xmlns="http://www.w3.org/2000/svg">
<path d="M4.1665 13.125C3.82484 13.125 3.5415 12.8417 3.5415 12.5V6.66667C3.5415 6.32501 3.82484 6.04167 4.1665 6.04167C4.50817 6.04167 4.7915 6.32501 4.7915 6.66667V12.5C4.7915 12.8417 4.50817 13.125 4.1665 13.125Z" fill="#232226"/>
<path d="M4.37484 18.9583C2.53317 18.9583 1.0415 17.4667 1.0415 15.625C1.0415 13.7833 2.53317 12.2917 4.37484 12.2917C6.2165 12.2917 7.70817 13.7833 7.70817 15.625C7.70817 17.4667 6.2165 18.9583 4.37484 18.9583ZM4.37484 13.5417C3.22484 13.5417 2.2915 14.475 2.2915 15.625C2.2915 16.775 3.22484 17.7083 4.37484 17.7083C5.52484 17.7083 6.45817 16.775 6.45817 15.625C6.45817 14.475 5.52484 13.5417 4.37484 13.5417Z" fill="#232226"/>
<path d="M4.1665 7.29167C2.4415 7.29167 1.0415 5.89167 1.0415 4.16667C1.0415 2.44167 2.4415 1.04167 4.1665 1.04167C5.8915 1.04167 7.2915 2.44167 7.2915 4.16667C7.2915 5.89167 5.8915 7.29167 4.1665 7.29167ZM4.1665 2.29167C3.13317 2.29167 2.2915 3.13334 2.2915 4.16667C2.2915 5.20001 3.13317 6.04167 4.1665 6.04167C5.19984 6.04167 6.0415 5.20001 6.0415 4.16667C6.0415 3.13334 5.19984 2.29167 4.1665 2.29167Z" fill="#232226"/>
<path d="M15.8335 7.29167C14.1085 7.29167 12.7085 5.89167 12.7085 4.16667C12.7085 2.44167 14.1085 1.04167 15.8335 1.04167C17.5585 1.04167 18.9585 2.44167 18.9585 4.16667C18.9585 5.89167 17.5585 7.29167 15.8335 7.29167ZM15.8335 2.29167C14.8002 2.29167 13.9585 3.13334 13.9585 4.16667C13.9585 5.20001 14.8002 6.04167 15.8335 6.04167C16.8668 6.04167 17.7085 5.20001 17.7085 4.16667C17.7085 3.13334 16.8668 2.29167 15.8335 2.29167Z" fill="#232226"/>
<path d="M4.27468 13.1252C4.22468 13.1252 4.17468 13.1169 4.11635 13.1086C3.78301 13.0252 3.58302 12.6835 3.66635 12.3502C4.12468 10.5835 5.71635 9.35021 7.54135 9.35021C7.54968 9.35021 7.54968 9.35021 7.55802 9.35021L10.4163 9.35855C10.4247 9.35855 10.4247 9.35855 10.433 9.35855C12.283 9.35855 13.9413 8.18354 14.5497 6.43354C14.6663 6.10854 15.0163 5.93355 15.3413 6.05022C15.6663 6.16688 15.8413 6.51687 15.7247 6.84187C14.9413 9.1002 12.783 10.5836 10.408 10.6086L7.54968 10.6002H7.54135C6.28302 10.6002 5.19135 11.4502 4.87468 12.6669C4.80801 12.9419 4.54968 13.1252 4.27468 13.1252Z" fill="#232226"/>
</svg>
