<svg width="16" height="16" viewBox="0 0 16 16" fill="none" xmlns="http://www.w3.org/2000/svg">
<path opacity="0.4" d="M7.99992 14.6666C11.6818 14.6666 14.6666 11.6819 14.6666 7.99998C14.6666 4.31808 11.6818 1.33331 7.99992 1.33331C4.31802 1.33331 1.33325 4.31808 1.33325 7.99998C1.33325 11.6819 4.31802 14.6666 7.99992 14.6666Z" fill="#959595"/>
<path d="M8 9.16665C8.27333 9.16665 8.5 8.93998 8.5 8.66665V5.33331C8.5 5.05998 8.27333 4.83331 8 4.83331C7.72667 4.83331 7.5 5.05998 7.5 5.33331V8.66665C7.5 8.93998 7.72667 9.16665 8 9.16665Z" fill="#232226"/>
<path d="M8.61325 10.4132C8.57992 10.3332 8.53325 10.2599 8.47325 10.1932C8.40659 10.1332 8.33325 10.0866 8.25325 10.0532C8.09325 9.98657 7.90659 9.98657 7.74659 10.0532C7.66659 10.0866 7.59325 10.1332 7.52659 10.1932C7.46659 10.2599 7.41992 10.3332 7.38659 10.4132C7.35325 10.4932 7.33325 10.5799 7.33325 10.6666C7.33325 10.7532 7.35325 10.8399 7.38659 10.9199C7.41992 11.0066 7.46659 11.0732 7.52659 11.1399C7.59325 11.1999 7.66659 11.2466 7.74659 11.2799C7.82659 11.3132 7.91325 11.3332 7.99992 11.3332C8.08659 11.3332 8.17325 11.3132 8.25325 11.2799C8.33325 11.2466 8.40659 11.1999 8.47325 11.1399C8.53325 11.0732 8.57992 11.0066 8.61325 10.9199C8.64659 10.8399 8.66659 10.7532 8.66659 10.6666C8.66659 10.5799 8.64659 10.4932 8.61325 10.4132Z" fill="#232226"/>
</svg>
