<svg width="18" height="18" viewBox="0 0 18 18" fill="none" xmlns="http://www.w3.org/2000/svg">
<path d="M4.63535 17.0625C4.56035 17.0625 4.47785 17.055 4.41035 17.0475L2.78285 16.8225C2.00285 16.7175 1.29785 16.02 1.17785 15.225L0.952847 13.5825C0.877847 13.0575 1.10285 12.375 1.47785 11.9925L4.77035 8.69998C4.23785 6.56998 4.85285 4.31998 6.42035 2.76748C8.85035 0.344979 12.8028 0.337479 15.2403 2.76748C16.4178 3.94498 17.0628 5.51248 17.0628 7.17748C17.0628 8.84248 16.4178 10.41 15.2403 11.5875C13.6653 13.1475 11.4228 13.7625 9.30785 13.2225L6.00785 16.515C5.69285 16.845 5.13035 17.0625 4.63535 17.0625ZM10.8228 2.06998C9.51035 2.06998 8.20535 2.56498 7.20785 3.56248C5.85785 4.90498 5.37035 6.86998 5.93285 8.69998C5.99285 8.90248 5.94035 9.11248 5.79035 9.26248L2.26535 12.7875C2.13785 12.915 2.03285 13.245 2.05535 13.4175L2.28035 15.06C2.32535 15.345 2.63285 15.6675 2.91785 15.705L4.55285 15.93C4.73285 15.96 5.06285 15.855 5.19035 15.7275L8.73035 12.195C8.88035 12.045 9.09785 12 9.29285 12.06C11.1003 12.63 13.0728 12.1425 14.4228 10.7925C15.3828 9.83248 15.9153 8.54248 15.9153 7.17748C15.9153 5.80498 15.3828 4.52248 14.4228 3.56248C13.4478 2.57248 12.1353 2.06998 10.8228 2.06998Z" fill="#232226"/>
<path d="M6.89256 15.405C6.75006 15.405 6.60756 15.3524 6.49506 15.2399L4.77006 13.5149C4.55256 13.2974 4.55256 12.9374 4.77006 12.7199C4.98756 12.5024 5.34756 12.5024 5.56506 12.7199L7.29006 14.4449C7.50756 14.6624 7.50756 15.0224 7.29006 15.2399C7.17756 15.3524 7.03506 15.405 6.89256 15.405Z" fill="#232226"/>
<path d="M10.875 8.81246C9.945 8.81246 9.1875 8.05496 9.1875 7.12496C9.1875 6.19496 9.945 5.43746 10.875 5.43746C11.805 5.43746 12.5625 6.19496 12.5625 7.12496C12.5625 8.05496 11.805 8.81246 10.875 8.81246ZM10.875 6.56246C10.5675 6.56246 10.3125 6.81746 10.3125 7.12496C10.3125 7.43246 10.5675 7.68746 10.875 7.68746C11.1825 7.68746 11.4375 7.43246 11.4375 7.12496C11.4375 6.81746 11.1825 6.56246 10.875 6.56246Z" fill="#232226"/>
</svg>
