<svg width="15" height="15" viewBox="0 0 15 15" fill="none" xmlns="http://www.w3.org/2000/svg">
<path d="M7.5 14.2563C7.06875 14.2563 6.6625 14.0375 6.375 13.6563L5.4375 12.4063C5.41875 12.3813 5.34375 12.35 5.3125 12.3438H5C2.39375 12.3438 0.78125 11.6375 0.78125 8.125V5C0.78125 2.2375 2.2375 0.78125 5 0.78125H10C12.7625 0.78125 14.2188 2.2375 14.2188 5V8.125C14.2188 10.8875 12.7625 12.3438 10 12.3438H9.6875C9.6375 12.3438 9.59375 12.3688 9.5625 12.4063L8.625 13.6563C8.3375 14.0375 7.93125 14.2563 7.5 14.2563ZM5 1.71875C2.7625 1.71875 1.71875 2.7625 1.71875 5V8.125C1.71875 10.95 2.6875 11.4063 5 11.4063H5.3125C5.63125 11.4063 5.99375 11.5875 6.1875 11.8438L7.125 13.0938C7.34375 13.3813 7.65625 13.3813 7.875 13.0938L8.8125 11.8438C9.01875 11.5688 9.34375 11.4063 9.6875 11.4063H10C12.2375 11.4063 13.2812 10.3625 13.2812 8.125V5C13.2812 2.7625 12.2375 1.71875 10 1.71875H5Z" fill="#232226"/>
<path d="M7.5 7.5C7.15 7.5 6.875 7.21875 6.875 6.875C6.875 6.53125 7.15625 6.25 7.5 6.25C7.84375 6.25 8.125 6.53125 8.125 6.875C8.125 7.21875 7.85 7.5 7.5 7.5Z" fill="#232226"/>
<path d="M10 7.5C9.65 7.5 9.375 7.21875 9.375 6.875C9.375 6.53125 9.65625 6.25 10 6.25C10.3438 6.25 10.625 6.53125 10.625 6.875C10.625 7.21875 10.35 7.5 10 7.5Z" fill="#232226"/>
<path d="M5 7.5C4.65 7.5 4.375 7.21875 4.375 6.875C4.375 6.53125 4.65625 6.25 5 6.25C5.34375 6.25 5.625 6.53125 5.625 6.875C5.625 7.21875 5.35 7.5 5 7.5Z" fill="#232226"/>
</svg>
