<svg width="28" height="28" viewBox="0 0 28 28" fill="none" xmlns="http://www.w3.org/2000/svg">
<rect x="0.75" y="0.75" width="26.5" height="26.5" rx="4.75" fill="white" stroke="#BBBBBB" stroke-width="0.5"/>
<path d="M16.5634 17.0561H11.3913C9.54009 17.0561 8.97729 16.4933 8.97729 14.6421V11.6933C8.97729 9.84212 9.54009 9.27933 11.3913 9.27933H16.5587C18.4099 9.27933 18.9727 9.84212 18.9727 11.6933V14.6375C18.9773 16.4933 18.4145 17.0561 16.5634 17.0561ZM11.3913 9.977C9.93079 9.977 9.67497 10.2328 9.67497 11.6933V14.6375C9.67497 16.0979 9.93079 16.3538 11.3913 16.3538H16.5587C18.0192 16.3538 18.275 16.0979 18.275 14.6375V11.6933C18.275 10.2328 18.0192 9.977 16.5587 9.977H11.3913Z" fill="#009EFF"/>
<path d="M13.9775 19.2793C13.7868 19.2793 13.6287 19.1212 13.6287 18.9305V16.7072C13.6287 16.5165 13.7868 16.3584 13.9775 16.3584C14.1682 16.3584 14.3263 16.5165 14.3263 16.7072V18.9305C14.3263 19.1212 14.1682 19.2793 13.9775 19.2793Z" fill="#009EFF"/>
<path d="M18.6285 15.0933H9.32613C9.13543 15.0933 8.97729 14.9352 8.97729 14.7445C8.97729 14.5538 9.13543 14.3956 9.32613 14.3956H18.6285C18.8192 14.3956 18.9773 14.5538 18.9773 14.7445C18.9773 14.9352 18.8192 15.0933 18.6285 15.0933Z" fill="#009EFF"/>
<path d="M16.0705 19.2793H11.8845C11.6938 19.2793 11.5356 19.1212 11.5356 18.9305C11.5356 18.7398 11.6938 18.5817 11.8845 18.5817H16.0705C16.2612 18.5817 16.4194 18.7398 16.4194 18.9305C16.4194 19.1212 16.2612 19.2793 16.0705 19.2793Z" fill="#009EFF"/>
</svg>
