<?xml version="1.0" encoding="utf-8"?>
<!-- Generator: Adobe Illustrator 25.3.1, SVG Export Plug-In . SVG Version: 6.00 Build 0)  -->
<svg version="1.1" id="Layer_1" xmlns="http://www.w3.org/2000/svg" xmlns:xlink="http://www.w3.org/1999/xlink" x="0px" y="0px"
	 viewBox="0 0 16 16" style="enable-background:new 0 0 16 16;" xml:space="preserve">
<style type="text/css">
	.st0{fill:#BBBBBB;}
</style>
<path class="st0" d="M3.7,12.3c-0.1,0-0.2,0-0.3-0.1c-0.7-0.6-1.4-1.4-1.9-2.2c-0.7-1.1-0.7-2.9,0-4c1.6-2.5,4-4,6.5-4
	c1.5,0,2.9,0.5,4.2,1.5c0.2,0.2,0.3,0.5,0.1,0.7c-0.2,0.2-0.5,0.3-0.7,0.1C10.5,3.4,9.2,3,8,3C5.8,3,3.8,4.3,2.3,6.5
	c-0.5,0.8-0.5,2.1,0,2.9s1.1,1.5,1.7,2c0.2,0.2,0.2,0.5,0.1,0.7C4,12.3,3.9,12.3,3.7,12.3z"/>
<path class="st0" d="M8,14c-0.9,0-1.8-0.2-2.6-0.5c-0.3-0.1-0.4-0.4-0.3-0.7c0.1-0.3,0.4-0.4,0.7-0.3C6.5,12.9,7.2,13,8,13
	c2.2,0,4.2-1.3,5.7-3.6c0.5-0.8,0.5-2.1,0-2.9c-0.2-0.3-0.4-0.6-0.7-0.9c-0.2-0.2-0.1-0.5,0.1-0.7c0.2-0.2,0.5-0.1,0.7,0.1
	c0.3,0.3,0.5,0.7,0.7,1c0.7,1.1,0.7,2.9,0,4C12.9,12.5,10.5,14,8,14z"/>
<path class="st0" d="M11.9,12.2c-0.2-0.2-0.2-0.5,0.1-0.7c0.6-0.5,1.2-1.2,1.7-2c0.5-0.8,0.5-2.1,0-2.9C12.2,4.3,10.1,3,8,3
	C6.7,3,5.5,3.4,4.4,4.2C4.2,4.4,3.8,4.4,3.7,4.1C3.5,3.9,3.6,3.6,3.8,3.4C5,2.5,6.5,2,8,2c2.5,0,4.9,1.5,6.5,4c0.7,1.1,0.7,2.9,0,4
	c-0.5,0.9-1.2,1.6-1.9,2.2c-0.1,0.1-0.2,0.1-0.3,0.1C12.1,12.3,11.9,12.3,11.9,12.2z"/>
<path class="st0" d="M1.5,10c-0.7-1.1-0.7-2.9,0-4c0.2-0.4,0.5-0.7,0.7-1c0.2-0.2,0.5-0.2,0.7-0.1C3.1,5.1,3.2,5.4,3,5.6
	C2.7,5.9,2.5,6.2,2.3,6.5c-0.5,0.8-0.5,2.1,0,2.9C3.8,11.7,5.8,13,8,13c0.7,0,1.5-0.2,2.2-0.5c0.3-0.1,0.5,0,0.7,0.3
	c0.1,0.3,0,0.5-0.3,0.7C9.7,13.8,8.8,14,8,14C5.5,14,3.1,12.5,1.5,10z"/>
<path class="st0" d="M8.5,10.8c-0.2,0-0.4-0.2-0.5-0.4c-0.1-0.3,0.1-0.5,0.4-0.6c0.7-0.1,1.3-0.7,1.5-1.5c0.1-0.3,0.3-0.4,0.6-0.4
	c0.3,0.1,0.5,0.3,0.4,0.6C10.6,9.7,9.7,10.6,8.5,10.8C8.5,10.8,8.5,10.8,8.5,10.8z"/>
<path class="st0" d="M8.7,6.3c0.1,0,0.1,0.1,0.2,0.1l0,0C8.9,6.3,8.8,6.3,8.7,6.3z"/>
<path class="st0" d="M10,6C9.8,5.8,9.6,5.6,9.4,5.5C9.2,5.4,9.1,5.3,8.9,5.3C8.6,5.2,8.3,5.1,8,5.1C6.4,5.1,5.1,6.4,5.1,8v0
	c0,0.2,0,0.3,0,0.5C5.3,9.1,5.5,9.6,6,10c0.5,0.5,1.2,0.9,2,0.9c1.6,0,2.9-1.3,2.9-2.9C10.9,7.2,10.6,6.5,10,6z M8,9.9
	c-0.3,0-0.7-0.1-0.9-0.2C6.8,9.5,6.5,9.2,6.4,8.9C6.3,8.8,6.2,8.6,6.2,8.5c0-0.1,0-0.1,0-0.2c0-0.1,0-0.2,0-0.3C6.1,7,7,6.1,8,6.1
	c0.1,0,0.2,0,0.3,0c0,0,0,0,0.1,0c0.1,0,0.2,0,0.3,0.1c0,0,0,0,0,0c0.1,0,0.1,0,0.2,0.1l0,0c0.3,0.2,0.5,0.4,0.7,0.7
	C9.8,7.3,9.9,7.7,9.9,8C9.9,9,9,9.9,8,9.9z"/>
</svg>
