<svg width="16" height="16" viewBox="0 0 16 16" fill="none" xmlns="http://www.w3.org/2000/svg">
<path d="M6.31333 10.1867C6.18666 10.1867 6.05999 10.14 5.95999 10.04C5.41333 9.49333 5.11333 8.76667 5.11333 8C5.11333 6.40667 6.40666 5.11333 7.99999 5.11333C8.76666 5.11333 9.49333 5.41333 10.04 5.96C10.1333 6.05333 10.1867 6.18 10.1867 6.31333C10.1867 6.44667 10.1333 6.57333 10.04 6.66667L6.66666 10.04C6.56666 10.14 6.43999 10.1867 6.31333 10.1867ZM7.99999 6.11333C6.95999 6.11333 6.11333 6.96 6.11333 8C6.11333 8.33333 6.19999 8.65333 6.35999 8.93333L8.93333 6.36C8.65333 6.2 8.33333 6.11333 7.99999 6.11333Z" fill="#BBBBBB"/>
<path d="M3.73334 12.34C3.62 12.34 3.5 12.3 3.40667 12.22C2.69334 11.6133 2.05334 10.8667 1.50667 10C0.800003 8.9 0.800003 7.10666 1.50667 6C3.13334 3.45333 5.5 1.98666 8 1.98666C9.46667 1.98666 10.9133 2.49333 12.18 3.44666C12.4 3.61333 12.4467 3.92666 12.28 4.14666C12.1133 4.36666 11.8 4.41333 11.58 4.24666C10.4867 3.42 9.24667 2.98666 8 2.98666C5.84667 2.98666 3.78667 4.28 2.34667 6.54C1.84667 7.32 1.84667 8.68 2.34667 9.46C2.84667 10.24 3.42 10.9133 4.05334 11.46C4.26 11.64 4.28667 11.9533 4.10667 12.1667C4.01334 12.28 3.87334 12.34 3.73334 12.34Z" fill="#BBBBBB"/>
<path d="M8.00001 14.0133C7.11334 14.0133 6.24667 13.8333 5.41334 13.48C5.16001 13.3733 5.04001 13.08 5.14667 12.8267C5.25334 12.5733 5.54667 12.4533 5.80001 12.56C6.50667 12.86 7.24667 13.0133 7.99334 13.0133C10.1467 13.0133 12.2067 11.72 13.6467 9.46C14.1467 8.68 14.1467 7.32 13.6467 6.54C13.44 6.21333 13.2133 5.9 12.9733 5.60666C12.8 5.39333 12.8333 5.08 13.0467 4.9C13.26 4.72666 13.5733 4.75333 13.7533 4.97333C14.0133 5.29333 14.2667 5.64 14.4933 6C15.2 7.1 15.2 8.89333 14.4933 10C12.8667 12.5467 10.5 14.0133 8.00001 14.0133Z" fill="#BBBBBB"/>
<path d="M8.46 10.8467C8.22667 10.8467 8.01334 10.68 7.96667 10.44C7.91334 10.1667 8.09334 9.90667 8.36667 9.86C9.1 9.72667 9.71334 9.11333 9.84667 8.38C9.9 8.10667 10.16 7.93333 10.4333 7.98C10.7067 8.03333 10.8867 8.29333 10.8333 8.56667C10.62 9.72 9.7 10.6333 8.55334 10.8467C8.52 10.84 8.49334 10.8467 8.46 10.8467Z" fill="#BBBBBB"/>
<path d="M1.33334 15.1667C1.20667 15.1667 1.08001 15.12 0.980007 15.02C0.786673 14.8267 0.786673 14.5067 0.980007 14.3133L5.96001 9.33333C6.15334 9.14 6.47334 9.14 6.66667 9.33333C6.86001 9.52666 6.86001 9.84667 6.66667 10.04L1.68667 15.02C1.58667 15.12 1.46001 15.1667 1.33334 15.1667Z" fill="#BBBBBB"/>
<path d="M9.68667 6.81333C9.56001 6.81333 9.43334 6.76667 9.33334 6.66667C9.14001 6.47333 9.14001 6.15333 9.33334 5.96L14.3133 0.979999C14.5067 0.786666 14.8267 0.786666 15.02 0.979999C15.2133 1.17333 15.2133 1.49333 15.02 1.68667L10.04 6.66667C9.94001 6.76667 9.81334 6.81333 9.68667 6.81333Z" fill="#BBBBBB"/>
</svg>
