<svg width="28" height="28" viewBox="0 0 28 28" fill="none" xmlns="http://www.w3.org/2000/svg">
<rect x="0.75" y="0.75" width="26.5" height="26.5" rx="4.75" fill="white" stroke="#BBBBBB" stroke-width="0.5"/>
<path d="M15.8462 10.1881C15.6338 10.0953 15.3864 10.1922 15.2937 10.4046C15.2009 10.617 15.2978 10.8643 15.5102 10.9571C16.8755 11.5535 17.7766 12.9039 17.7766 14.4195C17.7766 16.5051 16.0856 18.196 14.0002 18.196C11.9144 18.196 10.2237 16.5053 10.2237 14.4195C10.2237 12.9042 11.1246 11.5539 12.4894 10.957C12.7018 10.8642 12.7986 10.6168 12.7058 10.4045C12.6129 10.1922 12.3655 10.0953 12.1532 10.1881C10.4855 10.9174 9.38452 12.5677 9.38452 14.4195C9.38452 16.9687 11.451 19.0352 14.0002 19.0352C16.5491 19.0352 18.6159 16.9686 18.6159 14.4195C18.6159 12.5673 17.5144 10.9169 15.8462 10.1881Z" fill="#009EFF"/>
<path d="M13.9999 13.5804C14.2317 13.5804 14.4195 13.3925 14.4195 13.1608V9.38434C14.4195 9.15258 14.2317 8.96472 13.9999 8.96472C13.7682 8.96472 13.5803 9.15258 13.5803 9.38432V13.1608C13.5803 13.3925 13.7682 13.5804 13.9999 13.5804Z" fill="#009EFF"/>
</svg>
