<svg width="28" height="28" viewBox="0 0 28 28" fill="none" xmlns="http://www.w3.org/2000/svg">
<rect x="0.75" y="0.75" width="26.5" height="26.5" rx="4.75" fill="white" stroke="#BBBBBB" stroke-width="0.5"/>
<path d="M17.2051 16.4445C17.6948 15.5942 17.8271 14.5844 17.5732 13.6366C17.3192 12.6888 16.6997 11.8804 15.8505 11.3888C15.7655 11.3398 15.7034 11.2589 15.678 11.1641C15.6526 11.0693 15.6659 10.9683 15.715 10.8833C15.7641 10.7983 15.8449 10.7362 15.9397 10.7108C16.0345 10.6854 16.1356 10.6987 16.2206 10.7478C17.0236 11.2111 17.6615 11.9141 18.0447 12.7584C18.4279 13.6026 18.5372 14.5456 18.3573 15.4551C18.1773 16.3645 17.7172 17.1949 17.0413 17.8296C16.3655 18.4642 15.508 18.8714 14.589 18.9939L15.1858 19.3385C15.2708 19.3876 15.3328 19.4684 15.3582 19.5632C15.3836 19.658 15.3703 19.7591 15.3212 19.8441C15.2722 19.9291 15.1913 19.9911 15.0965 20.0165C15.0017 20.0419 14.9007 20.0286 14.8157 19.9795L13.3302 19.1219C13.2452 19.0728 13.1832 18.992 13.1578 18.8972C13.1324 18.8024 13.1457 18.7014 13.1948 18.6164L14.0518 17.1319C14.1009 17.0469 14.1818 16.9848 14.2766 16.9594C14.3714 16.934 14.4724 16.9473 14.5574 16.9964C14.6424 17.0455 14.7044 17.1263 14.7298 17.2211C14.7552 17.316 14.7419 17.417 14.6929 17.502L14.2411 18.2845C14.8482 18.2448 15.4363 18.0562 15.9532 17.7352C16.4702 17.4143 16.9002 16.971 17.2051 16.4445Z" fill="#009EFF"/>
<path d="M10.1537 12.3734C10.4942 11.7856 10.9648 11.2835 11.5294 10.9057C12.094 10.5279 12.7376 10.2845 13.4109 10.1941L12.8141 9.84953C12.7291 9.80045 12.6671 9.71961 12.6417 9.6248C12.6163 9.52999 12.6296 9.42897 12.6787 9.34396C12.7277 9.25896 12.8086 9.19693 12.9034 9.17152C12.9982 9.14612 13.0992 9.15942 13.1842 9.2085L14.6689 10.0656C14.7539 10.1147 14.8159 10.1956 14.8413 10.2904C14.8667 10.3852 14.8534 10.4862 14.8043 10.5712L13.9473 12.0557C13.8982 12.1407 13.8174 12.2027 13.7225 12.2281C13.6277 12.2535 13.5267 12.2402 13.4417 12.1912C13.3567 12.1421 13.2947 12.0612 13.2693 11.9664C13.2439 11.8716 13.2572 11.7706 13.3062 11.6856L13.758 10.903C12.9657 10.9545 12.211 11.2594 11.6053 11.7729C10.9997 12.2864 10.5754 12.981 10.395 13.7543C10.2146 14.5275 10.2878 15.3382 10.6038 16.0667C10.9197 16.7951 11.4616 17.4025 12.1494 17.7992C12.2344 17.8483 12.2965 17.9291 12.3219 18.0239C12.3473 18.1187 12.334 18.2198 12.2849 18.3048C12.2358 18.3898 12.155 18.4518 12.0602 18.4772C11.9654 18.5026 11.8643 18.4893 11.7793 18.4402C10.7603 17.8503 10.0168 16.8803 9.71206 15.743C9.40731 14.6056 9.56615 13.3938 10.1537 12.3734Z" fill="#009EFF"/>
</svg>
