<svg width="27" height="27" viewBox="0 0 27 27" fill="none" xmlns="http://www.w3.org/2000/svg">
<rect x="0.25" y="0.25" width="26.5" height="26.5" rx="4.75" fill="white" stroke="#BBBBBB" stroke-width="0.5"/>
<path d="M16.5565 13.1941L11.1568 10.1231C10.584 9.79639 10 10.1537 10 10.7964V17.2073C10 17.7517 10.3547 18 10.6844 18C10.8396 18 10.9978 17.951 11.1549 17.8555L16.5789 14.5379C16.8516 14.3705 17.0047 14.1228 16.9999 13.858C16.9954 13.593 16.834 13.3508 16.5565 13.1941ZM16.2154 13.9453L10.7917 17.2621C10.7653 17.279 10.7367 17.2921 10.7067 17.3012C10.6991 17.2705 10.6955 17.239 10.6961 17.2073V10.7966C10.6961 10.7306 10.7081 10.6974 10.7081 10.6891C10.7294 10.6905 10.7666 10.7014 10.8135 10.728L16.2125 13.7989C16.2791 13.837 16.2988 13.87 16.3051 13.8628C16.3017 13.8719 16.2791 13.9056 16.2154 13.9453Z" fill="#009EFF"/>
</svg>
