<svg width="16" height="16" viewBox="0 0 16 16" fill="none" xmlns="http://www.w3.org/2000/svg">
<path d="M11.3333 11.5833H5.66663C4.97663 11.5833 4.41663 11.0233 4.41663 10.3333V4.66666C4.41663 4.52999 4.52996 4.41666 4.66663 4.41666C4.80329 4.41666 4.91663 4.52999 4.91663 4.66666V10.3333C4.91663 10.7467 5.25329 11.0833 5.66663 11.0833H11.3333C11.47 11.0833 11.5833 11.1967 11.5833 11.3333C11.5833 11.47 11.47 11.5833 11.3333 11.5833Z" fill="#73AD57"/>
<path d="M5.66657 9.91668C5.6099 9.91668 5.5499 9.89668 5.50323 9.85668C5.3999 9.76668 5.38657 9.61002 5.47657 9.50335L7.00657 7.71668C7.17323 7.52334 7.41323 7.40668 7.66657 7.39668C7.9199 7.39001 8.1699 7.48334 8.3499 7.66334L8.66657 7.98001C8.7499 8.06335 8.8599 8.10334 8.97657 8.10334C9.09323 8.10001 9.1999 8.04668 9.27657 7.95668L10.8066 6.17002C10.8966 6.06668 11.0532 6.05334 11.1599 6.14334C11.2632 6.23334 11.2766 6.39001 11.1866 6.49668L9.65657 8.28335C9.4899 8.47668 9.2499 8.59334 8.99657 8.60334C8.74323 8.61001 8.49323 8.51668 8.31323 8.33668L7.9999 8.02001C7.91657 7.93668 7.80657 7.89335 7.6899 7.89668C7.57323 7.90001 7.46657 7.95335 7.3899 8.04335L5.8599 9.83001C5.80657 9.88668 5.73657 9.91668 5.66657 9.91668Z" fill="#73AD57"/>
<rect x="0.15" y="0.15" width="15.7" height="15.7" rx="7.85" stroke="#BBBBBB" stroke-opacity="0.733333" stroke-width="0.3"/>
</svg>
