<svg width="43" height="42" viewBox="0 0 43 42" fill="none" xmlns="http://www.w3.org/2000/svg">
<path d="M12.8854 15.4647C12.54 15.4647 12.2233 15.3064 12.0074 15.0185C11.7627 14.6875 11.7339 14.2557 11.9211 13.8958C12.1657 13.4065 12.5112 12.9315 12.9574 12.4997L17.6352 7.80742C20.0245 5.43252 23.9107 5.43252 26.3 7.80742L28.8189 10.3551C29.884 11.4058 30.5317 12.8163 30.6036 14.3132C30.618 14.6443 30.4885 14.9609 30.2438 15.1768C29.9991 15.3927 29.6681 15.4935 29.3514 15.4359C29.0635 15.3927 28.7613 15.3783 28.4446 15.3783H14.0513C13.7058 15.3783 13.3748 15.4071 13.0437 15.4503C13.0006 15.4647 12.943 15.4647 12.8854 15.4647ZM15.2891 13.2193H28.1856C27.9984 12.73 27.6962 12.2838 27.2932 11.8808L24.7599 9.31875C23.2198 7.79306 20.701 7.79306 19.1465 9.31875L15.2891 13.2193Z" fill="white"/>
<path d="M21.9674 6.38245L13.3314 13.5791L29.8838 14.2988L21.9674 6.38245Z" fill="white"/>
<rect x="7.85461" y="15.2988" width="26.7867" height="19.59" rx="3" fill="white" stroke="#009EFF" stroke-width="2"/>
<path d="M35.6413 29.052H31.3233C29.1355 29.052 27.3651 27.2816 27.3651 25.0938C27.3651 22.906 29.1355 21.1356 31.3233 21.1356H35.6413C36.2314 21.1356 36.7208 21.625 36.7208 22.2151C36.7208 22.8052 36.2314 23.2946 35.6413 23.2946H31.3233C30.3301 23.2946 29.5241 24.1007 29.5241 25.0938C29.5241 26.0869 30.3301 26.893 31.3233 26.893H35.6413C36.2314 26.893 36.7208 27.3823 36.7208 27.9725C36.7208 28.5626 36.2314 29.052 35.6413 29.052Z" fill="#009EFF"/>
</svg>
