<svg width="29" height="29" viewBox="0 0 29 29" fill="none" xmlns="http://www.w3.org/2000/svg">
<path d="M28.2113 13.1362C28.2107 13.1355 28.21 13.1349 28.2094 13.1342L16.7813 1.71289C16.2942 1.22583 15.6465 0.95752 14.9577 0.95752C14.2688 0.95752 13.6211 1.22562 13.1338 1.71268L1.71169 13.1283C1.70784 13.1321 1.704 13.1362 1.70015 13.14C0.699841 14.1455 0.701551 15.777 1.70507 16.7799C2.16354 17.2384 2.76907 17.5039 3.41649 17.5317C3.44278 17.5342 3.46928 17.5355 3.496 17.5355H3.95148V25.9409C3.95148 27.6042 5.30553 28.9575 6.97015 28.9575H11.4412C11.8943 28.9575 12.262 28.5903 12.262 28.1372V21.5474C12.262 20.7884 12.8797 20.171 13.6391 20.171H16.2762C17.0356 20.171 17.6534 20.7884 17.6534 21.5474V28.1372C17.6534 28.5903 18.0208 28.9575 18.4741 28.9575H22.9452C24.6098 28.9575 25.9638 27.6042 25.9638 25.9409V17.5355H26.3862C27.0749 17.5355 27.7225 17.2674 28.21 16.7804C29.2146 15.7757 29.215 14.1415 28.2113 13.1362V13.1362Z" fill="white"/>
</svg>
