<svg width="43" height="42" viewBox="0 0 43 42" fill="none" xmlns="http://www.w3.org/2000/svg">
<path d="M22.0339 19.25C25.4167 19.25 28.1589 16.5077 28.1589 13.125C28.1589 9.74225 25.4167 7 22.0339 7C18.6512 7 15.9089 9.74225 15.9089 13.125C15.9089 16.5077 18.6512 19.25 22.0339 19.25Z" fill="white"/>
<path d="M33.3662 30.4074C32.903 27.7487 31.5081 25.3418 29.4316 23.6179C27.3551 21.8941 24.7326 20.966 22.034 20.9999C19.3354 20.966 16.7129 21.8941 14.6363 23.6179C12.5598 25.3418 11.165 27.7487 10.7017 30.4074C10.62 30.9663 10.6598 31.5363 10.8185 32.0784C10.9772 32.6205 11.251 33.1219 11.6211 33.5485C12.0198 34.0071 12.5129 34.3742 13.0665 34.6247C13.6201 34.8751 14.2213 35.0031 14.8289 34.9999H29.239C29.8467 35.0031 30.4478 34.8751 31.0015 34.6247C31.5551 34.3742 32.0481 34.0071 32.4468 33.5485C32.817 33.1219 33.0908 32.6205 33.2494 32.0784C33.4081 31.5363 33.4479 30.9663 33.3662 30.4074Z" fill="white"/>
</svg>
